<svg width="512" height="512" viewBox="0 0 512 512" fill="none" xmlns="http://www.w3.org/2000/svg">
<g clip-path="url(#clip0_1292_2)">
<path d="M256 512C397.385 512 512 397.385 512 256C512 114.615 397.385 0 256 0C114.615 0 0 114.615 0 256C0 397.385 114.615 512 256 512Z" fill="#7B00FF"/>
<path d="M154.86 238.999C158.074 239.002 161.157 237.729 163.433 235.46C165.709 233.192 166.992 230.113 167 226.899C167.025 214.562 169.607 202.364 174.583 191.075C179.559 179.786 186.82 169.651 195.91 161.309C198.28 159.136 199.689 156.11 199.828 152.897C199.967 149.685 198.823 146.549 196.65 144.179C194.477 141.809 191.451 140.4 188.238 140.261C185.026 140.123 181.89 141.266 179.52 143.439C167.955 154.053 158.716 166.95 152.388 181.315C146.059 195.68 142.777 211.202 142.75 226.899C142.758 230.107 144.037 233.182 146.306 235.45C148.576 237.718 151.652 238.994 154.86 238.999Z" fill="white"/>
<path d="M345 226.899C344.954 228.521 345.233 230.135 345.821 231.647C346.41 233.159 347.295 234.537 348.426 235.7C349.556 236.864 350.909 237.789 352.403 238.42C353.897 239.052 355.503 239.377 357.125 239.377C358.747 239.377 360.353 239.052 361.847 238.42C363.342 237.789 364.694 236.864 365.825 235.7C366.955 234.537 367.841 233.159 368.429 231.647C369.018 230.135 369.297 228.521 369.25 226.899C369.223 211.202 365.941 195.68 359.612 181.315C353.284 166.95 344.045 154.053 332.48 143.439C331.307 142.363 329.933 141.528 328.437 140.983C326.941 140.438 325.353 140.193 323.762 140.261C322.171 140.33 320.61 140.711 319.166 141.384C317.723 142.056 316.426 143.006 315.35 144.179C314.274 145.352 313.439 146.726 312.894 148.222C312.349 149.718 312.104 151.307 312.172 152.897C312.241 154.488 312.622 156.05 313.295 157.493C313.967 158.936 314.917 160.233 316.09 161.309C325.18 169.651 332.441 179.786 337.417 191.075C342.393 202.364 344.975 214.562 345 226.899Z" fill="white"/>
<path d="M327.6 285.3V226.9C327.6 210.929 322.262 195.417 312.434 182.828C302.607 170.239 288.853 161.296 273.36 157.42V138.36C273.36 133.756 271.531 129.34 268.275 126.085C265.02 122.829 260.604 121 256 121C251.396 121 246.98 122.829 243.724 126.085C240.469 129.34 238.64 133.756 238.64 138.36V157.42C223.146 161.296 209.393 170.239 199.565 182.828C189.738 195.417 184.4 210.929 184.4 226.9V285.3L148 329.65C146.107 331.961 144.908 334.762 144.544 337.727C144.18 340.692 144.665 343.7 145.943 346.4C147.221 349.1 149.239 351.382 151.763 352.981C154.287 354.579 157.212 355.429 160.2 355.43H216.1C217.22 365.225 221.907 374.265 229.266 380.825C236.625 387.385 246.141 391.007 256 391C265.852 390.998 275.358 387.371 282.709 380.812C290.06 374.252 294.74 365.218 295.86 355.43H351.76C354.751 355.436 357.682 354.592 360.211 352.997C362.741 351.401 364.765 349.12 366.048 346.418C367.331 343.716 367.819 340.706 367.457 337.737C367.094 334.768 365.895 331.964 364 329.65L327.6 285.3Z" fill="white"/>
</g>
<defs>
<clipPath id="clip0_1292_2">
<rect width="512" height="512" fill="white"/>
</clipPath>
</defs>
</svg>
