<svg id="Layer_2" viewBox="0 0 512 512" xmlns="http://www.w3.org/2000/svg" data-name="Layer 2"><g id="Icon"><g id="Montserrat"><path d="m412 0h-312c-55.23 0-100 44.77-100 100v312c0 55.23 44.77 100 100 100h312c55.23 0 100-44.77 100-100v-312c0-55.23-44.77-100-100-100zm-137.94 321.77c0 10.01-8.34 18.36-18.59 18.36s-18.12-8.34-18.12-18.36v-70.3l-37.64 71.02c-3.34 6.42-9.06 10.25-15.48 10.25s-11.91-3.57-15.25-10.25l-37.89-71.02v70.3c0 10.01-8.11 18.36-17.87 18.36-10.24 0-18.59-8.34-18.59-18.36v-132.97c0-11.2 8.58-16.92 16.43-16.92 7.39 0 14.3 5.72 17.87 11.91l55.3 98.41 55.28-98.41c3.57-6.19 10.73-11.91 18.1-11.91 7.88 0 16.45 5.72 16.45 16.92zm82.08 19.31c-18.12 0-37.18-6.91-49.58-20.49-2.62-3.1-7.63-9.55-7.63-17.64 0-7.39 4.77-15.02 14.53-15.02 7.88 0 13.12 5.01 16.92 10.01 8.34 9.29 18.59 11.43 25.5 11.43 10.01 0 24.8-3.57 24.8-18.59 0-10.71-6.67-16.43-24.8-23.58l-8.58-3.1c-24.78-9.53-43.37-21.21-43.37-46.24 0-29.07 24.31-46.94 54.58-46.94 20.49 0 32.64 6.91 42.42 16.69 5.24 5.96 7.86 10.48 7.86 15.95 0 7.88-6.44 14.07-14.79 14.07-5.24 0-10.71-3.1-14.05-6.67-6.67-5.96-11.2-8.58-20.02-8.58-13.1 0-20.01 6.91-20.01 15.97 0 6.19 2.62 13.1 16.43 18.36l7.86 2.85c39.33 14.53 53.15 29.07 53.15 51.23 0 33.84-33.61 50.29-61.24 50.29z" fill-rule="evenodd"/></g></g></svg>